<?xml version="1.0" encoding="UTF-8"?>
<svg id="Layer_1" data-name="Layer 1" xmlns="http://www.w3.org/2000/svg" viewBox="0 0 831.11 684.01">
  <defs>
    <style>
      .cls-1 {
        fill: #fff;
        stroke-width: 0px;
      }
    </style>
  </defs>
  <path class="cls-1" d="m331.48,114c.65-.17,1.31-.32,1.96-.48l-48.49-66.06c-3.04-4.84-6.4-9.28-10-13.18-4.43-4.79-6.59-9.12-6.59-13.23,0-9.7,7.94-15.25,23.61-16.52V0h-135.58v4.5c6.96.69,13.09,3.49,18.25,8.33,5.48,5.18,12.75,13.57,21.61,24.95l72.99,99.09c18.4-9.33,39.25-17,62.23-22.87Z"/>
  <path class="cls-1" d="m142.56,145.87l-.2-.6c-.55-1.67-1.28-3.41-2.17-5.19-1.19-2.37-1.79-4.8-1.79-7.23,0-3.02,1.18-7.37,6.81-10.97,3.58-2.27,9.09-3.52,16.8-3.8v-4.39H0v4.4c9.95.44,16.65,2.84,20.42,7.31,3.99,4.72,6.02,11.04,6.02,18.78v428.68c0,7.75-2.03,14.08-6.02,18.79-3.75,4.45-10.44,6.86-20.41,7.3v4.41h125.19v-4.41c-9.95-.44-16.65-2.84-20.42-7.3-4-4.73-6.02-11.05-6.02-18.79V198.02l6.97-4.65,77.54,90.57c-1.15-8.08-1.72-16.7-1.72-25.85,0-17.58,3.75-34.12,11.15-49.38l-50.13-62.84Z"/>
  <path class="cls-1" d="m537.29,184.3c1.75.69,3.45,1.4,5.12,2.12,14.11,6.1,25.2,12.48,32.96,18.93,8.47,7.06,12.59,13.19,12.59,18.74s-.23,8.59-.52,10.62l5.01,3.19,48.64-101.7-5.79-2.41c-2.71,2.61-5.41,5-8.05,7.11-3.82,3.05-9.48,4.54-17.29,4.54-6.81,0-14.96-1.93-24.91-5.91-3.27-1.31-6.9-2.67-10.84-4.08l-36.91,48.85Z"/>
  <path class="cls-1" d="m333.67,385.4c3.18.32,6.39.6,9.62.84,8,.59,16.17.93,24.5,1.01,1.48.01,2.96.03,4.44.04v-71.17c-11.25-.29-22.02-.84-32.14-1.67-15.66-1.27-29.62-4.04-41.48-8.21-12.14-4.26-21.83-10.29-28.8-17.94-7.18-7.86-10.83-18.34-10.83-31.16,0-26.38,14.27-48.17,42.41-64.84,1.39-.82,2.8-1.64,4.26-2.44.62-.34,1.26-.67,1.89-1.01,18.27-9.65,40.46-16.42,66.33-20.24,2.6-.38,5.23-.74,7.9-1.06,14.55-1.77,30.19-2.66,46.89-2.66,9.65,0,19.04.4,28.14,1.15l38.67-51.38c-18.93-3.37-41.38-5.08-66.81-5.08-29.49,0-57.45,2.82-83.3,8.38-2.5.54-4.98,1.1-7.44,1.69-1.58.38-3.15.76-4.71,1.16-22.05,5.63-42.07,12.94-59.76,21.8-2.13,1.07-4.22,2.16-6.28,3.27-3.41,1.84-6.74,3.73-9.96,5.69-21.18,12.89-38.13,28.59-50.38,46.66-2.14,3.15-4.08,6.38-5.85,9.67-1.23,2.29-2.36,4.6-3.41,6.95-5.99,13.46-9.03,27.94-9.03,43.26,0,13.41,1.29,25.57,3.82,36.47,1.42,6.12,3.25,11.83,5.46,17.14,4.07,9.78,9.46,18.2,16.19,25.17,5.98,6.2,12.57,11.79,19.73,16.79,5.83,4.07,12.04,7.74,18.63,11,8.45,4.17,17.5,7.68,27.13,10.47,16.88,4.92,35.01,8.35,54.17,10.29Z"/>
  <path class="cls-1" d="m458.55,387.72c.42,0,.85,0,1.27,0,9.01,0,17.8.25,26.31.75l51.57-64.63c-17.55-3.47-36.05-5.51-55.32-6.07-8-.24-15.95-.44-23.83-.62v70.57Z"/>
  <path class="cls-1" d="m372.23,433.73l-32.51-40.75c-22.08-1.81-42.91-5.54-62.17-11.14-5.05-1.47-9.95-3.12-14.7-4.96l109.39,127.76v-70.91Z"/>
  <path class="cls-1" d="m456.99,672.17c-3.61-4.67-5.44-10.95-5.44-18.66v-39.74c-10.44.63-21.21.96-32.33.96-14.05,0-27.39-.47-39.99-1.4v40.18c0,7.68-1.83,13.96-5.45,18.66-3.42,4.44-9.07,6.87-17.21,7.39v4.44h117.64v-4.44c-8.16-.52-13.81-2.96-17.22-7.4Z"/>
  <path class="cls-1" d="m692.7,132.98c0,2.43-.6,4.86-1.79,7.23-.89,1.78-1.62,3.53-2.17,5.19l-.2.6-.39.49-137.95,172.9-4.84,6.07-50.75,63.61-5.29,6.63-30.78,38.57v70.88l85.39-99.73,4.85-5.66,48.1-56.18,4.67-5.45,123.84-144.64,6.97,4.65v374.84c0,7.74-2.03,14.06-6.02,18.78-3.77,4.46-10.47,6.86-20.42,7.3v4.41h125.19v-4.41c-9.97-.44-16.67-2.84-20.42-7.31-3.99-4.7-6.02-11.02-6.02-18.78V144.3c0-7.74,2.02-14.05,6.02-18.78,3.76-4.46,10.46-6.86,20.42-7.31v-4.4h-162.01v4.39c7.71.28,13.22,1.53,16.78,3.79,5.64,3.61,6.82,7.97,6.82,10.98Z"/>
  <path class="cls-1" d="m555.57,402.6c10.21,4.83,18.47,11.4,24.61,19.57,7.04,9.4,10.61,21.23,10.61,35.15,0,28.83-14.03,52.68-41.7,70.91-20.57,13.55-50.93,22.05-90.54,25.39-2.3.19-4.64.37-7,.53-10.77.73-22.17,1.1-34.22,1.1-12.75,0-25.48-.76-38.1-2.27-2.34-.28-4.67-.58-7-.91-8.26-1.17-16.47-2.65-24.59-4.46-22.8-5.06-43.51-11.65-61.55-19.57-18.18-7.97-33.08-16.89-44.31-26.52-11.77-10.09-17.75-20.19-17.75-30.04,0-3.35.66-6.92,1.95-10.66l-6.3-3.39-48.07,102.38,4.33,2.6c6.91-6.9,13.77-10.39,20.42-10.39,7.56,0,17.06,3.07,29.02,9.38,11.18,5.91,25.69,12.53,43.13,19.69,17.37,7.14,38.61,13.43,63.14,18.7,12.32,2.65,25.88,4.64,40.56,5.97,2.3.21,4.64.39,7,.57,12.57.94,25.92,1.41,39.99,1.41,11.13,0,21.9-.33,32.33-.97,2.35-.14,4.69-.3,7-.48,24.12-1.83,46.22-5.41,65.99-10.71,29.99-8.03,55.51-19.29,75.86-33.48,20.24-14.1,35.61-30.39,45.69-48.41,10.04-17.95,15.14-36.91,15.14-56.36,0-36.68-8.59-64.8-25.54-83.58-9.41-10.41-20.31-19.31-32.59-26.65l-47.52,55.5Z"/>
  <path class="cls-1" d="m460.07,173.33l-41.88,55.65-39.61-53.97c-26.2,3.54-48.57,10.06-66.83,19.54l67.49,91.62v259.76c12.62,1.54,25.35,2.31,38.1,2.31,12.08,0,23.48-.37,34.22-1.1v-260.99l.71-.94,73.78-97.62,4.43-5.86,36.79-48.68,4.45-5.88,67.6-89.46c8.85-10.75,16.08-18.93,21.47-24.33,5.27-5.27,12.06-8.26,20.22-8.91V0h-128.97v4.42c10.17.55,20.77,3.75,20.77,14.74,0,4.02-1.81,8.15-5.53,12.62-3.08,3.68-5.92,7.15-8.45,10.33l-51.01,67.78-4.67,6.2-38.16,50.71-4.91,6.52Z"/>
</svg>